<mxfile host="app.diagrams.net" agent="Mozilla/5.0 (Windows NT 10.0; Win64; x64) AppleWebKit/537.36 (KHTML, like Gecko) Chrome/130.0.0.0 Safari/537.36" version="24.8.3">
  <diagram name="Página-1" id="-cmdrMES3POWukae9CuF">
    <mxGraphModel dx="1035" dy="1720" grid="1" gridSize="10" guides="1" tooltips="1" connect="1" arrows="1" fold="1" page="1" pageScale="1" pageWidth="827" pageHeight="1169" math="0" shadow="0">
      <root>
        <mxCell id="0" />
        <mxCell id="1" parent="0" />
        <mxCell id="Rtw7uPVq1lmrRMLtPTsA-12" style="edgeStyle=orthogonalEdgeStyle;rounded=0;orthogonalLoop=1;jettySize=auto;html=1;entryX=0;entryY=0.5;entryDx=0;entryDy=0;" parent="1" source="Rtw7uPVq1lmrRMLtPTsA-1" target="Rtw7uPVq1lmrRMLtPTsA-6" edge="1">
          <mxGeometry relative="1" as="geometry" />
        </mxCell>
        <mxCell id="Rtw7uPVq1lmrRMLtPTsA-14" style="edgeStyle=orthogonalEdgeStyle;rounded=0;orthogonalLoop=1;jettySize=auto;html=1;entryX=0;entryY=0.5;entryDx=0;entryDy=0;" parent="1" source="Rtw7uPVq1lmrRMLtPTsA-1" target="Rtw7uPVq1lmrRMLtPTsA-8" edge="1">
          <mxGeometry relative="1" as="geometry" />
        </mxCell>
        <mxCell id="Rtw7uPVq1lmrRMLtPTsA-15" style="edgeStyle=orthogonalEdgeStyle;rounded=0;orthogonalLoop=1;jettySize=auto;html=1;entryX=0;entryY=0.5;entryDx=0;entryDy=0;" parent="1" source="Rtw7uPVq1lmrRMLtPTsA-1" target="Rtw7uPVq1lmrRMLtPTsA-9" edge="1">
          <mxGeometry relative="1" as="geometry" />
        </mxCell>
        <mxCell id="Rtw7uPVq1lmrRMLtPTsA-17" style="edgeStyle=orthogonalEdgeStyle;rounded=0;orthogonalLoop=1;jettySize=auto;html=1;entryX=1;entryY=0.5;entryDx=0;entryDy=0;" parent="1" source="Rtw7uPVq1lmrRMLtPTsA-1" target="Rtw7uPVq1lmrRMLtPTsA-16" edge="1">
          <mxGeometry relative="1" as="geometry">
            <Array as="points">
              <mxPoint x="560" y="240" />
              <mxPoint x="560" y="240" />
            </Array>
          </mxGeometry>
        </mxCell>
        <mxCell id="Rtw7uPVq1lmrRMLtPTsA-1" value="Usuário" style="whiteSpace=wrap;html=1;align=center;" parent="1" vertex="1">
          <mxGeometry x="370" y="220" width="100" height="40" as="geometry" />
        </mxCell>
        <mxCell id="Rtw7uPVq1lmrRMLtPTsA-33" style="edgeStyle=orthogonalEdgeStyle;rounded=0;orthogonalLoop=1;jettySize=auto;html=1;entryX=0;entryY=0.5;entryDx=0;entryDy=0;" parent="1" source="Rtw7uPVq1lmrRMLtPTsA-2" edge="1">
          <mxGeometry relative="1" as="geometry">
            <Array as="points">
              <mxPoint x="539" y="590" />
              <mxPoint x="539" y="620" />
            </Array>
            <mxPoint x="607.5" y="620" as="targetPoint" />
          </mxGeometry>
        </mxCell>
        <mxCell id="Rtw7uPVq1lmrRMLtPTsA-2" value="Intérprete" style="whiteSpace=wrap;html=1;align=center;" parent="1" vertex="1">
          <mxGeometry x="370" y="570" width="100" height="40" as="geometry" />
        </mxCell>
        <mxCell id="Rtw7uPVq1lmrRMLtPTsA-6" value="Nome&amp;nbsp;" style="ellipse;whiteSpace=wrap;html=1;align=center;" parent="1" vertex="1">
          <mxGeometry x="600" y="160" width="100" height="40" as="geometry" />
        </mxCell>
        <mxCell id="Rtw7uPVq1lmrRMLtPTsA-7" value="CPF" style="ellipse;whiteSpace=wrap;html=1;align=center;" parent="1" vertex="1">
          <mxGeometry x="170" y="-70" width="100" height="40" as="geometry" />
        </mxCell>
        <mxCell id="Rtw7uPVq1lmrRMLtPTsA-8" value="CPF/CNPJ" style="ellipse;whiteSpace=wrap;html=1;align=center;" parent="1" vertex="1">
          <mxGeometry x="600" y="270" width="100" height="40" as="geometry" />
        </mxCell>
        <mxCell id="Rtw7uPVq1lmrRMLtPTsA-9" value="Data de Nascimento" style="ellipse;whiteSpace=wrap;html=1;align=center;" parent="1" vertex="1">
          <mxGeometry x="600" y="330" width="100" height="40" as="geometry" />
        </mxCell>
        <mxCell id="JoCIKOvpgaEz2MrhnN-x-28" style="edgeStyle=orthogonalEdgeStyle;rounded=0;orthogonalLoop=1;jettySize=auto;html=1;entryX=0;entryY=0.5;entryDx=0;entryDy=0;" parent="1" target="Rtw7uPVq1lmrRMLtPTsA-16" edge="1">
          <mxGeometry relative="1" as="geometry">
            <mxPoint x="600" y="250" as="targetPoint" />
            <mxPoint x="580" y="240" as="sourcePoint" />
          </mxGeometry>
        </mxCell>
        <mxCell id="Rtw7uPVq1lmrRMLtPTsA-16" value="Tefefone" style="ellipse;whiteSpace=wrap;html=1;align=center;" parent="1" vertex="1">
          <mxGeometry x="605.25" y="220" width="100" height="40" as="geometry" />
        </mxCell>
        <mxCell id="Rtw7uPVq1lmrRMLtPTsA-29" value="Nome" style="ellipse;whiteSpace=wrap;html=1;align=center;" parent="1" vertex="1">
          <mxGeometry x="600" y="550" width="100" height="40" as="geometry" />
        </mxCell>
        <mxCell id="Rtw7uPVq1lmrRMLtPTsA-41" value="&lt;font style=&quot;font-size: 14px;&quot;&gt;O objetivo principal da nossa startup é desenvolver um aplicativo de acessibilidade em tradução&amp;nbsp;&lt;/font&gt;&lt;div&gt;&lt;font size=&quot;3&quot;&gt;para auxiliar na comunicação de pessoas surdas ou daquelas que enfrentam a falta de intérpretes de Libras.&amp;nbsp;&lt;/font&gt;&lt;/div&gt;&lt;div&gt;&lt;font size=&quot;3&quot;&gt;Isso se torna crucial quando essas pessoas enfrentam desafios para participar de aulas, palestras, entre outros.&lt;/font&gt;&lt;/div&gt;" style="text;html=1;align=center;verticalAlign=middle;resizable=0;points=[];autosize=1;strokeColor=none;fillColor=none;" parent="1" vertex="1">
          <mxGeometry x="20" y="-250" width="820" height="70" as="geometry" />
        </mxCell>
        <mxCell id="Rtw7uPVq1lmrRMLtPTsA-173" value="&lt;b&gt;&lt;font style=&quot;font-size: 18px;&quot;&gt;Aluno: Alan Michel Lourenço Da Silva&lt;/font&gt;&lt;/b&gt;" style="text;html=1;align=center;verticalAlign=middle;resizable=0;points=[];autosize=1;strokeColor=none;fillColor=none;" parent="1" vertex="1">
          <mxGeometry x="10" y="-330" width="350" height="40" as="geometry" />
        </mxCell>
        <mxCell id="Rtw7uPVq1lmrRMLtPTsA-174" value="&lt;b&gt;&lt;font style=&quot;font-size: 18px;&quot;&gt;Turma: 2°B&lt;/font&gt;&lt;/b&gt;" style="text;html=1;align=center;verticalAlign=middle;resizable=0;points=[];autosize=1;strokeColor=none;fillColor=none;" parent="1" vertex="1">
          <mxGeometry x="520" y="-320" width="120" height="40" as="geometry" />
        </mxCell>
        <mxCell id="80oid8XE5d8tb2jCaMYu-5" value="Pessoa_Fisica" style="whiteSpace=wrap;html=1;align=center;" parent="1" vertex="1">
          <mxGeometry x="250" y="50" width="100" height="40" as="geometry" />
        </mxCell>
        <mxCell id="80oid8XE5d8tb2jCaMYu-6" value="Pessoa_Juridica" style="whiteSpace=wrap;html=1;align=center;" parent="1" vertex="1">
          <mxGeometry x="480" y="50" width="100" height="40" as="geometry" />
        </mxCell>
        <mxCell id="80oid8XE5d8tb2jCaMYu-7" value="" style="endArrow=none;html=1;rounded=0;exitX=0.5;exitY=0;exitDx=0;exitDy=0;" parent="1" source="Rtw7uPVq1lmrRMLtPTsA-1" target="80oid8XE5d8tb2jCaMYu-8" edge="1">
          <mxGeometry relative="1" as="geometry">
            <mxPoint x="330" y="200" as="sourcePoint" />
            <mxPoint x="420" y="170" as="targetPoint" />
          </mxGeometry>
        </mxCell>
        <mxCell id="80oid8XE5d8tb2jCaMYu-8" value="d" style="ellipse;whiteSpace=wrap;html=1;aspect=fixed;" parent="1" vertex="1">
          <mxGeometry x="400" y="160" width="40" height="40" as="geometry" />
        </mxCell>
        <mxCell id="80oid8XE5d8tb2jCaMYu-9" value="" style="endArrow=none;html=1;rounded=0;exitX=0.75;exitY=1;exitDx=0;exitDy=0;" parent="1" source="80oid8XE5d8tb2jCaMYu-5" target="80oid8XE5d8tb2jCaMYu-8" edge="1">
          <mxGeometry relative="1" as="geometry">
            <mxPoint x="330" y="200" as="sourcePoint" />
            <mxPoint x="490" y="200" as="targetPoint" />
          </mxGeometry>
        </mxCell>
        <mxCell id="80oid8XE5d8tb2jCaMYu-10" value="" style="endArrow=none;html=1;rounded=0;entryX=0.5;entryY=1;entryDx=0;entryDy=0;" parent="1" source="80oid8XE5d8tb2jCaMYu-8" target="80oid8XE5d8tb2jCaMYu-6" edge="1">
          <mxGeometry relative="1" as="geometry">
            <mxPoint x="330" y="200" as="sourcePoint" />
            <mxPoint x="490" y="200" as="targetPoint" />
          </mxGeometry>
        </mxCell>
        <mxCell id="80oid8XE5d8tb2jCaMYu-11" value="" style="endArrow=none;html=1;rounded=0;exitX=0.79;exitY=0.925;exitDx=0;exitDy=0;exitPerimeter=0;entryX=0.25;entryY=0;entryDx=0;entryDy=0;" parent="1" source="Rtw7uPVq1lmrRMLtPTsA-7" target="80oid8XE5d8tb2jCaMYu-5" edge="1">
          <mxGeometry relative="1" as="geometry">
            <mxPoint x="330" y="200" as="sourcePoint" />
            <mxPoint x="490" y="200" as="targetPoint" />
          </mxGeometry>
        </mxCell>
        <mxCell id="JoCIKOvpgaEz2MrhnN-x-5" value="" style="endArrow=classic;html=1;rounded=0;entryX=0;entryY=0.5;entryDx=0;entryDy=0;" parent="1" target="Rtw7uPVq1lmrRMLtPTsA-29" edge="1">
          <mxGeometry width="50" height="50" relative="1" as="geometry">
            <mxPoint x="540" y="590" as="sourcePoint" />
            <mxPoint x="575" y="530" as="targetPoint" />
            <Array as="points">
              <mxPoint x="540" y="570" />
            </Array>
          </mxGeometry>
        </mxCell>
        <mxCell id="JoCIKOvpgaEz2MrhnN-x-9" value="" style="endArrow=classic;html=1;rounded=0;" parent="1" edge="1">
          <mxGeometry width="50" height="50" relative="1" as="geometry">
            <mxPoint x="540" y="620" as="sourcePoint" />
            <mxPoint x="604.75" y="670" as="targetPoint" />
            <Array as="points">
              <mxPoint x="540" y="670" />
            </Array>
          </mxGeometry>
        </mxCell>
        <mxCell id="JoCIKOvpgaEz2MrhnN-x-39" style="edgeStyle=orthogonalEdgeStyle;rounded=0;orthogonalLoop=1;jettySize=auto;html=1;exitX=0;exitY=0.5;exitDx=0;exitDy=0;entryX=1;entryY=0.5;entryDx=0;entryDy=0;" parent="1" source="JoCIKOvpgaEz2MrhnN-x-27" target="JoCIKOvpgaEz2MrhnN-x-31" edge="1">
          <mxGeometry relative="1" as="geometry" />
        </mxCell>
        <mxCell id="JoCIKOvpgaEz2MrhnN-x-43" style="edgeStyle=orthogonalEdgeStyle;rounded=0;orthogonalLoop=1;jettySize=auto;html=1;exitX=0;exitY=0.5;exitDx=0;exitDy=0;entryX=1;entryY=0.5;entryDx=0;entryDy=0;" parent="1" source="JoCIKOvpgaEz2MrhnN-x-27" target="JoCIKOvpgaEz2MrhnN-x-35" edge="1">
          <mxGeometry relative="1" as="geometry" />
        </mxCell>
        <mxCell id="JoCIKOvpgaEz2MrhnN-x-27" value="Eventos" style="rounded=0;whiteSpace=wrap;html=1;" parent="1" vertex="1">
          <mxGeometry x="196" y="360" width="100" height="40" as="geometry" />
        </mxCell>
        <mxCell id="JoCIKOvpgaEz2MrhnN-x-31" value="Titulo" style="ellipse;whiteSpace=wrap;html=1;align=center;" parent="1" vertex="1">
          <mxGeometry x="40.710000000000036" y="300" width="100" height="40" as="geometry" />
        </mxCell>
        <mxCell id="JoCIKOvpgaEz2MrhnN-x-32" value="Tipo" style="ellipse;whiteSpace=wrap;html=1;align=center;" parent="1" vertex="1">
          <mxGeometry x="40.710000000000036" y="410" width="100" height="40" as="geometry" />
        </mxCell>
        <mxCell id="JoCIKOvpgaEz2MrhnN-x-33" value="Data&amp;nbsp;" style="ellipse;whiteSpace=wrap;html=1;align=center;" parent="1" vertex="1">
          <mxGeometry x="40.710000000000036" y="470" width="100" height="40" as="geometry" />
        </mxCell>
        <mxCell id="JoCIKOvpgaEz2MrhnN-x-35" value="Tema" style="ellipse;whiteSpace=wrap;html=1;align=center;" parent="1" vertex="1">
          <mxGeometry x="40.000000000000036" y="359.5" width="100" height="40" as="geometry" />
        </mxCell>
        <mxCell id="JoCIKOvpgaEz2MrhnN-x-40" value="" style="endArrow=classic;html=1;rounded=0;entryX=1;entryY=0.5;entryDx=0;entryDy=0;" parent="1" target="JoCIKOvpgaEz2MrhnN-x-41" edge="1">
          <mxGeometry width="50" height="50" relative="1" as="geometry">
            <mxPoint x="166" y="490" as="sourcePoint" />
            <mxPoint x="316" y="430" as="targetPoint" />
            <Array as="points">
              <mxPoint x="166" y="550" />
            </Array>
          </mxGeometry>
        </mxCell>
        <mxCell id="JoCIKOvpgaEz2MrhnN-x-41" value="Horario" style="ellipse;whiteSpace=wrap;html=1;align=center;" parent="1" vertex="1">
          <mxGeometry x="40.000000000000036" y="530" width="100" height="40" as="geometry" />
        </mxCell>
        <mxCell id="JoCIKOvpgaEz2MrhnN-x-42" value="" style="endArrow=classic;html=1;rounded=0;entryX=1;entryY=0.5;entryDx=0;entryDy=0;" parent="1" target="JoCIKOvpgaEz2MrhnN-x-33" edge="1">
          <mxGeometry width="50" height="50" relative="1" as="geometry">
            <mxPoint x="166" y="430" as="sourcePoint" />
            <mxPoint x="316" y="430" as="targetPoint" />
            <Array as="points">
              <mxPoint x="166" y="490" />
            </Array>
          </mxGeometry>
        </mxCell>
        <mxCell id="JoCIKOvpgaEz2MrhnN-x-44" value="" style="endArrow=classic;html=1;rounded=0;entryX=1;entryY=0.5;entryDx=0;entryDy=0;" parent="1" target="JoCIKOvpgaEz2MrhnN-x-32" edge="1">
          <mxGeometry width="50" height="50" relative="1" as="geometry">
            <mxPoint x="166" y="380" as="sourcePoint" />
            <mxPoint x="316" y="430" as="targetPoint" />
            <Array as="points">
              <mxPoint x="166" y="430" />
            </Array>
          </mxGeometry>
        </mxCell>
        <mxCell id="JoCIKOvpgaEz2MrhnN-x-47" value="(0,1)" style="text;html=1;align=center;verticalAlign=middle;resizable=0;points=[];autosize=1;strokeColor=none;fillColor=none;" parent="1" vertex="1">
          <mxGeometry x="166" y="405" width="50" height="30" as="geometry" />
        </mxCell>
        <mxCell id="jYvOWbFQaShM0tcJg9qX-1" value="CNPJ" style="ellipse;whiteSpace=wrap;html=1;align=center;" vertex="1" parent="1">
          <mxGeometry x="640" y="-70" width="100" height="40" as="geometry" />
        </mxCell>
        <mxCell id="jYvOWbFQaShM0tcJg9qX-2" value="" style="endArrow=none;html=1;rounded=0;entryX=0.39;entryY=1;entryDx=0;entryDy=0;entryPerimeter=0;exitX=0.75;exitY=0;exitDx=0;exitDy=0;" edge="1" parent="1" source="80oid8XE5d8tb2jCaMYu-6" target="jYvOWbFQaShM0tcJg9qX-1">
          <mxGeometry width="50" height="50" relative="1" as="geometry">
            <mxPoint x="430" y="130" as="sourcePoint" />
            <mxPoint x="480" y="80" as="targetPoint" />
            <Array as="points">
              <mxPoint x="680" y="-30" />
            </Array>
          </mxGeometry>
        </mxCell>
        <mxCell id="jYvOWbFQaShM0tcJg9qX-3" value="Oferta" style="rhombus;whiteSpace=wrap;html=1;direction=south;" vertex="1" parent="1">
          <mxGeometry x="186" y="260" width="120" height="50" as="geometry" />
        </mxCell>
        <mxCell id="jYvOWbFQaShM0tcJg9qX-4" value="" style="endArrow=none;html=1;rounded=0;exitX=0;exitY=0.5;exitDx=0;exitDy=0;entryX=0;entryY=0.5;entryDx=0;entryDy=0;" edge="1" parent="1" source="jYvOWbFQaShM0tcJg9qX-3" target="Rtw7uPVq1lmrRMLtPTsA-1">
          <mxGeometry width="50" height="50" relative="1" as="geometry">
            <mxPoint x="310" y="260" as="sourcePoint" />
            <mxPoint x="360" y="210" as="targetPoint" />
            <Array as="points">
              <mxPoint x="250" y="240" />
            </Array>
          </mxGeometry>
        </mxCell>
        <mxCell id="jYvOWbFQaShM0tcJg9qX-5" value="" style="endArrow=none;html=1;rounded=0;exitX=0.5;exitY=0;exitDx=0;exitDy=0;entryX=1;entryY=0.5;entryDx=0;entryDy=0;" edge="1" parent="1" source="JoCIKOvpgaEz2MrhnN-x-27" target="jYvOWbFQaShM0tcJg9qX-3">
          <mxGeometry width="50" height="50" relative="1" as="geometry">
            <mxPoint x="310" y="260" as="sourcePoint" />
            <mxPoint x="360" y="210" as="targetPoint" />
          </mxGeometry>
        </mxCell>
        <mxCell id="jYvOWbFQaShM0tcJg9qX-6" value="Convite" style="rhombus;whiteSpace=wrap;html=1;direction=south;" vertex="1" parent="1">
          <mxGeometry x="186" y="490" width="120" height="50" as="geometry" />
        </mxCell>
        <mxCell id="jYvOWbFQaShM0tcJg9qX-7" value="" style="endArrow=none;html=1;rounded=0;exitX=0;exitY=0.5;exitDx=0;exitDy=0;entryX=0.5;entryY=1;entryDx=0;entryDy=0;" edge="1" parent="1" source="jYvOWbFQaShM0tcJg9qX-6" target="JoCIKOvpgaEz2MrhnN-x-27">
          <mxGeometry width="50" height="50" relative="1" as="geometry">
            <mxPoint x="310" y="460" as="sourcePoint" />
            <mxPoint x="360" y="410" as="targetPoint" />
          </mxGeometry>
        </mxCell>
        <mxCell id="jYvOWbFQaShM0tcJg9qX-8" value="" style="endArrow=none;html=1;rounded=0;exitX=1;exitY=0.5;exitDx=0;exitDy=0;entryX=0;entryY=0.5;entryDx=0;entryDy=0;" edge="1" parent="1" source="jYvOWbFQaShM0tcJg9qX-6" target="Rtw7uPVq1lmrRMLtPTsA-2">
          <mxGeometry width="50" height="50" relative="1" as="geometry">
            <mxPoint x="310" y="460" as="sourcePoint" />
            <mxPoint x="360" y="410" as="targetPoint" />
            <Array as="points">
              <mxPoint x="246" y="590" />
            </Array>
          </mxGeometry>
        </mxCell>
        <mxCell id="jYvOWbFQaShM0tcJg9qX-12" value="Contrato" style="rhombus;whiteSpace=wrap;html=1;direction=south;" vertex="1" parent="1">
          <mxGeometry x="370" y="360" width="120" height="50" as="geometry" />
        </mxCell>
        <mxCell id="jYvOWbFQaShM0tcJg9qX-16" value="" style="endArrow=none;html=1;rounded=0;entryX=0.5;entryY=1;entryDx=0;entryDy=0;exitX=0;exitY=0.5;exitDx=0;exitDy=0;" edge="1" parent="1" source="jYvOWbFQaShM0tcJg9qX-12" target="Rtw7uPVq1lmrRMLtPTsA-1">
          <mxGeometry width="50" height="50" relative="1" as="geometry">
            <mxPoint x="310" y="460" as="sourcePoint" />
            <mxPoint x="360" y="410" as="targetPoint" />
          </mxGeometry>
        </mxCell>
        <mxCell id="jYvOWbFQaShM0tcJg9qX-17" value="" style="endArrow=none;html=1;rounded=0;entryX=0.5;entryY=1;entryDx=0;entryDy=0;exitX=1;exitY=0.5;exitDx=0;exitDy=0;" edge="1" parent="1" source="JoCIKOvpgaEz2MrhnN-x-27" target="jYvOWbFQaShM0tcJg9qX-12">
          <mxGeometry width="50" height="50" relative="1" as="geometry">
            <mxPoint x="300" y="385" as="sourcePoint" />
            <mxPoint x="360" y="410" as="targetPoint" />
          </mxGeometry>
        </mxCell>
        <mxCell id="jYvOWbFQaShM0tcJg9qX-19" value="" style="endArrow=none;html=1;rounded=0;entryX=1;entryY=0.5;entryDx=0;entryDy=0;exitX=0.5;exitY=0;exitDx=0;exitDy=0;" edge="1" parent="1" source="Rtw7uPVq1lmrRMLtPTsA-2" target="jYvOWbFQaShM0tcJg9qX-12">
          <mxGeometry width="50" height="50" relative="1" as="geometry">
            <mxPoint x="310" y="460" as="sourcePoint" />
            <mxPoint x="360" y="410" as="targetPoint" />
          </mxGeometry>
        </mxCell>
        <mxCell id="jYvOWbFQaShM0tcJg9qX-20" value="Lugar" style="ellipse;whiteSpace=wrap;html=1;align=center;" vertex="1" parent="1">
          <mxGeometry x="40.000000000000036" y="590" width="100" height="40" as="geometry" />
        </mxCell>
        <mxCell id="jYvOWbFQaShM0tcJg9qX-21" value="Descrição" style="ellipse;whiteSpace=wrap;html=1;align=center;" vertex="1" parent="1">
          <mxGeometry x="40.000000000000036" y="660" width="100" height="40" as="geometry" />
        </mxCell>
        <mxCell id="jYvOWbFQaShM0tcJg9qX-22" value="" style="endArrow=classic;html=1;rounded=0;entryX=1;entryY=0.5;entryDx=0;entryDy=0;" edge="1" parent="1">
          <mxGeometry width="50" height="50" relative="1" as="geometry">
            <mxPoint x="166" y="550" as="sourcePoint" />
            <mxPoint x="136" y="610" as="targetPoint" />
            <Array as="points">
              <mxPoint x="166" y="610" />
            </Array>
          </mxGeometry>
        </mxCell>
        <mxCell id="jYvOWbFQaShM0tcJg9qX-23" value="" style="endArrow=classic;html=1;rounded=0;entryX=1;entryY=0.5;entryDx=0;entryDy=0;" edge="1" parent="1" target="jYvOWbFQaShM0tcJg9qX-21">
          <mxGeometry width="50" height="50" relative="1" as="geometry">
            <mxPoint x="160" y="610" as="sourcePoint" />
            <mxPoint x="360" y="490" as="targetPoint" />
            <Array as="points">
              <mxPoint x="160" y="640" />
              <mxPoint x="160" y="680" />
            </Array>
          </mxGeometry>
        </mxCell>
        <mxCell id="jYvOWbFQaShM0tcJg9qX-25" value="CPF/CNPJ" style="ellipse;whiteSpace=wrap;html=1;align=center;" vertex="1" parent="1">
          <mxGeometry x="605.25" y="650" width="100" height="40" as="geometry" />
        </mxCell>
        <mxCell id="jYvOWbFQaShM0tcJg9qX-26" value="Data de Nascimento" style="ellipse;whiteSpace=wrap;html=1;align=center;" vertex="1" parent="1">
          <mxGeometry x="600" y="710" width="100" height="40" as="geometry" />
        </mxCell>
        <mxCell id="jYvOWbFQaShM0tcJg9qX-27" value="Tefefone" style="ellipse;whiteSpace=wrap;html=1;align=center;" vertex="1" parent="1">
          <mxGeometry x="605.25" y="600" width="100" height="40" as="geometry" />
        </mxCell>
        <mxCell id="jYvOWbFQaShM0tcJg9qX-28" value="" style="endArrow=classic;html=1;rounded=0;entryX=0;entryY=0.5;entryDx=0;entryDy=0;" edge="1" parent="1" target="jYvOWbFQaShM0tcJg9qX-26">
          <mxGeometry width="50" height="50" relative="1" as="geometry">
            <mxPoint x="540" y="670" as="sourcePoint" />
            <mxPoint x="360" y="590" as="targetPoint" />
            <Array as="points">
              <mxPoint x="540" y="730" />
            </Array>
          </mxGeometry>
        </mxCell>
      </root>
    </mxGraphModel>
  </diagram>
</mxfile>
